<?xml version="1.0" encoding="UTF-8"?>
<svg width="512px" height="512px" viewBox="0 0 512 512" version="1.1" xmlns="http://www.w3.org/2000/svg" xmlns:xlink="http://www.w3.org/1999/xlink">
    <!-- Generator: Sketch 55.2 (78181) - https://sketchapp.com -->
    <title>Artboard</title>
    <desc>Created with Sketch.</desc>
    <defs>
        <polygon id="path-1" points="0 5.1091954 502.323395 5.1091954 502.323395 502.160336 0 502.160336"></polygon>
        <polygon id="path-3" points="4.09235349 5.1091954 171.532698 5.1091954 171.532698 170.627274 4.09235349 170.627274"></polygon>
    </defs>
    <g id="Artboard" stroke="none" stroke-width="1" fill="none" fill-rule="evenodd">
        <g id="xom" transform="translate(5.000000, 2.000000)">
            <g id="Group-7">
                <g id="Group-3" transform="translate(0.000000, 0.729885)">
                    <mask id="mask-2" fill="white">
                        <use xlink:href="#path-1"></use>
                    </mask>
                    <g id="Clip-2"></g>
                    <path d="M502.328121,419.403048 C502.328121,373.7356 464.907423,336.71583 418.726679,336.645761 L418.732586,336.645761 C372.351005,336.569853 334.818074,299.351554 334.883051,253.508933 L334.877144,253.520611 C334.877144,253.473899 334.883051,253.427186 334.883051,253.380474 C334.883051,207.677991 297.403284,170.629025 251.16347,170.629025 C204.923656,170.629025 167.443888,133.574221 167.443888,87.8717379 C167.443888,42.1634161 129.958214,5.10861149 83.724307,5.10861149 C37.484493,5.10861149 -0.00118139535,42.1634161 -0.00118139535,87.8717379 C-0.00118139535,133.556703 37.4549581,170.593991 83.6593302,170.623186 L83.6593302,170.629025 C83.706586,170.629025 83.7479349,170.634864 83.7892837,170.634864 C129.993656,170.66406 167.443888,207.701347 167.443888,253.380474 C167.443888,253.473899 167.455702,253.561485 167.455702,253.643232 L167.443888,253.631554 C167.579749,299.339876 130.212214,336.505623 83.9724,336.645761 L83.9901209,336.657439 C37.8566326,336.785899 0.506818605,373.782313 0.506818605,419.403048 C0.506818605,465.105531 37.992493,502.160336 84.2264,502.160336 C130.466214,502.160336 167.951888,465.105531 167.951888,419.403048 C167.951888,419.309623 167.940074,419.227876 167.940074,419.14029 L167.951888,419.151968 C167.810121,373.507876 205.077237,336.39468 251.22254,336.155278 C297.491888,336.324611 334.912586,373.461163 334.877144,419.216198 C334.877144,419.257071 334.883051,419.297945 334.883051,419.338818 L334.888958,419.332979 C334.888958,419.356336 334.883051,419.379692 334.883051,419.403048 C334.883051,465.105531 372.368726,502.160336 418.602633,502.160336 C464.842447,502.160336 502.328121,465.105531 502.328121,419.403048" id="Fill-1" fill="#009BC8" mask="url(#mask-2)"></path>
                </g>
                <g id="Group-6" transform="translate(330.790698, 0.729885)">
                    <mask id="mask-4" fill="white">
                        <use xlink:href="#path-3"></use>
                    </mask>
                    <g id="Clip-5"></g>
                    <path d="M171.537423,87.8699862 C171.537423,42.1616644 134.051749,5.10685977 87.8119349,5.10685977 C41.5780279,5.10685977 4.09235349,42.1616644 4.09235349,87.8699862 C4.09235349,133.572469 41.5780279,170.627274 87.8119349,170.627274 C134.051749,170.627274 171.537423,133.572469 171.537423,87.8699862" id="Fill-4" fill="#9B9B9E" mask="url(#mask-4)"></path>
                </g>
            </g>
        </g>
    </g>
</svg>